<mxfile host="app.diagrams.net" agent="Mozilla/5.0 (X11; Linux x86_64) AppleWebKit/537.36 (KHTML, like Gecko) Chrome/130.0.0.0 Safari/537.36" version="24.9.0">
  <diagram id="R2lEEEUBdFMjLlhIrx00" name="Page-1">
    <mxGraphModel dx="2728" dy="1598" grid="1" gridSize="10" guides="1" tooltips="1" connect="1" arrows="1" fold="1" page="1" pageScale="1" pageWidth="850" pageHeight="1100" math="0" shadow="0" extFonts="Permanent Marker^https://fonts.googleapis.com/css?family=Permanent+Marker">
      <root>
        <mxCell id="0" />
        <mxCell id="1" parent="0" />
        <mxCell id="50BzkrFxMsGgUT9Oo1El-145" value="" style="rounded=0;whiteSpace=wrap;html=1;" vertex="1" parent="1">
          <mxGeometry width="1730" height="1100" as="geometry" />
        </mxCell>
        <mxCell id="50BzkrFxMsGgUT9Oo1El-80" value="" style="group;fillColor=none;" vertex="1" connectable="0" parent="1">
          <mxGeometry x="950" y="390" width="370" height="280" as="geometry" />
        </mxCell>
        <mxCell id="50BzkrFxMsGgUT9Oo1El-142" style="rounded=0;orthogonalLoop=1;jettySize=auto;html=1;exitX=0.5;exitY=0;exitDx=0;exitDy=0;endArrow=ERzeroToMany;endFill=0;startArrow=ERone;startFill=0;fillColor=none;" edge="1" parent="50BzkrFxMsGgUT9Oo1El-80" source="C-vyLk0tnHw3VtMMgP7b-23">
          <mxGeometry relative="1" as="geometry">
            <mxPoint x="184.80952380952385" y="-170.0000000000001" as="targetPoint" />
          </mxGeometry>
        </mxCell>
        <mxCell id="C-vyLk0tnHw3VtMMgP7b-23" value="User" style="shape=table;startSize=30;container=1;collapsible=1;childLayout=tableLayout;fixedRows=1;rowLines=0;fontStyle=1;align=center;resizeLast=1;fillColor=none;" parent="50BzkrFxMsGgUT9Oo1El-80" vertex="1">
          <mxGeometry y="10" width="370" height="270" as="geometry" />
        </mxCell>
        <mxCell id="C-vyLk0tnHw3VtMMgP7b-24" value="" style="shape=partialRectangle;collapsible=0;dropTarget=0;pointerEvents=0;fillColor=none;points=[[0,0.5],[1,0.5]];portConstraint=eastwest;top=0;left=0;right=0;bottom=1;" parent="C-vyLk0tnHw3VtMMgP7b-23" vertex="1">
          <mxGeometry y="30" width="370" height="30" as="geometry" />
        </mxCell>
        <mxCell id="C-vyLk0tnHw3VtMMgP7b-25" value="PK" style="shape=partialRectangle;overflow=hidden;connectable=0;fillColor=none;top=0;left=0;bottom=0;right=0;fontStyle=1;" parent="C-vyLk0tnHw3VtMMgP7b-24" vertex="1">
          <mxGeometry width="30" height="30" as="geometry">
            <mxRectangle width="30" height="30" as="alternateBounds" />
          </mxGeometry>
        </mxCell>
        <mxCell id="C-vyLk0tnHw3VtMMgP7b-26" value="user_idÂ UUID Indexed" style="shape=partialRectangle;overflow=hidden;connectable=0;fillColor=none;top=0;left=0;bottom=0;right=0;align=left;spacingLeft=6;fontStyle=5;" parent="C-vyLk0tnHw3VtMMgP7b-24" vertex="1">
          <mxGeometry x="30" width="340" height="30" as="geometry">
            <mxRectangle width="340" height="30" as="alternateBounds" />
          </mxGeometry>
        </mxCell>
        <mxCell id="C-vyLk0tnHw3VtMMgP7b-27" value="" style="shape=partialRectangle;collapsible=0;dropTarget=0;pointerEvents=0;fillColor=none;points=[[0,0.5],[1,0.5]];portConstraint=eastwest;top=0;left=0;right=0;bottom=0;" parent="C-vyLk0tnHw3VtMMgP7b-23" vertex="1">
          <mxGeometry y="60" width="370" height="30" as="geometry" />
        </mxCell>
        <mxCell id="C-vyLk0tnHw3VtMMgP7b-28" value="" style="shape=partialRectangle;overflow=hidden;connectable=0;fillColor=none;top=0;left=0;bottom=0;right=0;" parent="C-vyLk0tnHw3VtMMgP7b-27" vertex="1">
          <mxGeometry width="30" height="30" as="geometry">
            <mxRectangle width="30" height="30" as="alternateBounds" />
          </mxGeometry>
        </mxCell>
        <mxCell id="C-vyLk0tnHw3VtMMgP7b-29" value="first_name VARCHAR NOT NULL" style="shape=partialRectangle;overflow=hidden;connectable=0;fillColor=none;top=0;left=0;bottom=0;right=0;align=left;spacingLeft=6;" parent="C-vyLk0tnHw3VtMMgP7b-27" vertex="1">
          <mxGeometry x="30" width="340" height="30" as="geometry">
            <mxRectangle width="340" height="30" as="alternateBounds" />
          </mxGeometry>
        </mxCell>
        <mxCell id="50BzkrFxMsGgUT9Oo1El-26" value="" style="shape=partialRectangle;overflow=hidden;connectable=0;fillColor=none;top=0;left=0;bottom=0;right=0;" vertex="1" parent="50BzkrFxMsGgUT9Oo1El-80">
          <mxGeometry y="93.33333333333333" width="30" height="31.11111111111111" as="geometry">
            <mxRectangle width="30" height="30" as="alternateBounds" />
          </mxGeometry>
        </mxCell>
        <mxCell id="50BzkrFxMsGgUT9Oo1El-27" value="last_name VARCHAR NOT NULL" style="shape=partialRectangle;overflow=hidden;connectable=0;fillColor=none;top=0;left=1;bottom=0;right=0;align=left;spacingLeft=6;" vertex="1" parent="50BzkrFxMsGgUT9Oo1El-80">
          <mxGeometry x="30" y="93.33333333333333" width="340" height="31.11111111111111" as="geometry">
            <mxRectangle width="340" height="30" as="alternateBounds" />
          </mxGeometry>
        </mxCell>
        <mxCell id="50BzkrFxMsGgUT9Oo1El-28" value="" style="shape=partialRectangle;overflow=hidden;connectable=0;fillColor=none;top=0;left=0;bottom=0;right=0;" vertex="1" parent="50BzkrFxMsGgUT9Oo1El-80">
          <mxGeometry y="124.44444444444444" width="30" height="31.11111111111111" as="geometry">
            <mxRectangle width="30" height="30" as="alternateBounds" />
          </mxGeometry>
        </mxCell>
        <mxCell id="50BzkrFxMsGgUT9Oo1El-29" value="email VARCHAR UNIQUE NOT NULL" style="shape=partialRectangle;overflow=hidden;connectable=0;fillColor=none;top=0;left=1;bottom=0;right=0;align=left;spacingLeft=6;" vertex="1" parent="50BzkrFxMsGgUT9Oo1El-80">
          <mxGeometry x="30" y="124.44444444444444" width="340" height="31.11111111111111" as="geometry">
            <mxRectangle width="340" height="30" as="alternateBounds" />
          </mxGeometry>
        </mxCell>
        <mxCell id="50BzkrFxMsGgUT9Oo1El-30" value="" style="shape=partialRectangle;overflow=hidden;connectable=0;fillColor=none;top=0;left=0;bottom=0;right=0;" vertex="1" parent="50BzkrFxMsGgUT9Oo1El-80">
          <mxGeometry y="155.55555555555554" width="30" height="31.11111111111111" as="geometry">
            <mxRectangle width="30" height="30" as="alternateBounds" />
          </mxGeometry>
        </mxCell>
        <mxCell id="50BzkrFxMsGgUT9Oo1El-31" value="password_hash VARCHAR NOT NULL" style="shape=partialRectangle;overflow=hidden;connectable=0;fillColor=none;top=0;left=1;bottom=0;right=0;align=left;spacingLeft=6;" vertex="1" parent="50BzkrFxMsGgUT9Oo1El-80">
          <mxGeometry x="30" y="155.55555555555554" width="340" height="31.11111111111111" as="geometry">
            <mxRectangle width="340" height="30" as="alternateBounds" />
          </mxGeometry>
        </mxCell>
        <mxCell id="50BzkrFxMsGgUT9Oo1El-32" value="" style="shape=partialRectangle;overflow=hidden;connectable=0;fillColor=none;top=0;left=0;bottom=0;right=0;" vertex="1" parent="50BzkrFxMsGgUT9Oo1El-80">
          <mxGeometry y="186.66666666666666" width="30" height="31.11111111111111" as="geometry">
            <mxRectangle width="30" height="30" as="alternateBounds" />
          </mxGeometry>
        </mxCell>
        <mxCell id="50BzkrFxMsGgUT9Oo1El-33" value="phone_number VARCHAR NULL" style="shape=partialRectangle;overflow=hidden;connectable=0;fillColor=none;top=0;left=1;bottom=0;right=0;align=left;spacingLeft=6;" vertex="1" parent="50BzkrFxMsGgUT9Oo1El-80">
          <mxGeometry x="30" y="186.66666666666666" width="340" height="31.11111111111111" as="geometry">
            <mxRectangle width="340" height="30" as="alternateBounds" />
          </mxGeometry>
        </mxCell>
        <mxCell id="50BzkrFxMsGgUT9Oo1El-34" value="" style="shape=partialRectangle;overflow=hidden;connectable=0;fillColor=none;top=0;left=0;bottom=0;right=0;" vertex="1" parent="50BzkrFxMsGgUT9Oo1El-80">
          <mxGeometry y="217.77777777777777" width="30" height="31.11111111111111" as="geometry">
            <mxRectangle width="30" height="30" as="alternateBounds" />
          </mxGeometry>
        </mxCell>
        <mxCell id="50BzkrFxMsGgUT9Oo1El-35" value="role ENUM (guest, host, admin) NOT NULL" style="shape=partialRectangle;overflow=hidden;connectable=0;fillColor=none;top=0;left=1;bottom=0;right=0;align=left;spacingLeft=6;" vertex="1" parent="50BzkrFxMsGgUT9Oo1El-80">
          <mxGeometry x="30" y="217.77777777777777" width="340" height="31.11111111111111" as="geometry">
            <mxRectangle width="340" height="30" as="alternateBounds" />
          </mxGeometry>
        </mxCell>
        <mxCell id="50BzkrFxMsGgUT9Oo1El-36" value="" style="shape=partialRectangle;overflow=hidden;connectable=0;fillColor=none;top=0;left=0;bottom=0;right=0;" vertex="1" parent="50BzkrFxMsGgUT9Oo1El-80">
          <mxGeometry y="248.88888888888889" width="30" height="31.11111111111111" as="geometry">
            <mxRectangle width="30" height="30" as="alternateBounds" />
          </mxGeometry>
        </mxCell>
        <mxCell id="50BzkrFxMsGgUT9Oo1El-37" value="created_at TIMESTAMP DEFAULT CURRENT_TIMESTAMP" style="shape=partialRectangle;overflow=hidden;connectable=0;fillColor=none;top=0;left=1;bottom=0;right=0;align=left;spacingLeft=6;" vertex="1" parent="50BzkrFxMsGgUT9Oo1El-80">
          <mxGeometry x="30" y="248.88888888888889" width="340" height="31.11111111111111" as="geometry">
            <mxRectangle width="340" height="30" as="alternateBounds" />
          </mxGeometry>
        </mxCell>
        <mxCell id="50BzkrFxMsGgUT9Oo1El-81" value="" style="group;fillColor=none;" vertex="1" connectable="0" parent="1">
          <mxGeometry x="430" y="40" width="380" height="270" as="geometry" />
        </mxCell>
        <mxCell id="50BzkrFxMsGgUT9Oo1El-38" value="" style="shape=partialRectangle;overflow=hidden;connectable=0;fillColor=none;top=0;left=0;bottom=0;right=0;" vertex="1" parent="50BzkrFxMsGgUT9Oo1El-81">
          <mxGeometry y="120" width="30" height="30" as="geometry">
            <mxRectangle width="30" height="30" as="alternateBounds" />
          </mxGeometry>
        </mxCell>
        <mxCell id="50BzkrFxMsGgUT9Oo1El-40" value="" style="shape=partialRectangle;overflow=hidden;connectable=0;fillColor=none;top=0;left=0;bottom=0;right=0;" vertex="1" parent="50BzkrFxMsGgUT9Oo1El-81">
          <mxGeometry y="150" width="30" height="30" as="geometry">
            <mxRectangle width="30" height="30" as="alternateBounds" />
          </mxGeometry>
        </mxCell>
        <mxCell id="50BzkrFxMsGgUT9Oo1El-42" value="" style="shape=partialRectangle;overflow=hidden;connectable=0;fillColor=none;top=0;left=0;bottom=0;right=0;" vertex="1" parent="50BzkrFxMsGgUT9Oo1El-81">
          <mxGeometry y="180" width="30" height="30" as="geometry">
            <mxRectangle width="30" height="30" as="alternateBounds" />
          </mxGeometry>
        </mxCell>
        <mxCell id="50BzkrFxMsGgUT9Oo1El-44" value="" style="shape=partialRectangle;overflow=hidden;connectable=0;fillColor=none;top=0;left=0;bottom=0;right=0;" vertex="1" parent="50BzkrFxMsGgUT9Oo1El-81">
          <mxGeometry y="210" width="30" height="30" as="geometry">
            <mxRectangle width="30" height="30" as="alternateBounds" />
          </mxGeometry>
        </mxCell>
        <mxCell id="50BzkrFxMsGgUT9Oo1El-46" value="" style="shape=partialRectangle;overflow=hidden;connectable=0;fillColor=none;top=0;left=0;bottom=0;right=0;" vertex="1" parent="50BzkrFxMsGgUT9Oo1El-81">
          <mxGeometry y="240" width="30" height="30" as="geometry">
            <mxRectangle width="30" height="30" as="alternateBounds" />
          </mxGeometry>
        </mxCell>
        <mxCell id="50BzkrFxMsGgUT9Oo1El-79" value="" style="group;fillColor=none;" vertex="1" connectable="0" parent="50BzkrFxMsGgUT9Oo1El-81">
          <mxGeometry width="380" height="270" as="geometry" />
        </mxCell>
        <mxCell id="50BzkrFxMsGgUT9Oo1El-47" value="updated_at TIMESTAMP ON UPDATE CURRENT_TIMESTAMP" style="shape=partialRectangle;overflow=hidden;connectable=0;fillColor=none;top=0;left=1;bottom=0;right=0;align=left;spacingLeft=6;" vertex="1" parent="50BzkrFxMsGgUT9Oo1El-79">
          <mxGeometry x="30" y="240" width="350" height="30" as="geometry">
            <mxRectangle width="350" height="30" as="alternateBounds" />
          </mxGeometry>
        </mxCell>
        <mxCell id="50BzkrFxMsGgUT9Oo1El-78" value="" style="group;fillColor=none;" vertex="1" connectable="0" parent="50BzkrFxMsGgUT9Oo1El-79">
          <mxGeometry width="380" height="270" as="geometry" />
        </mxCell>
        <mxCell id="C-vyLk0tnHw3VtMMgP7b-2" value="Property" style="shape=table;startSize=30;container=1;collapsible=1;childLayout=tableLayout;fixedRows=1;rowLines=0;fontStyle=1;align=center;resizeLast=1;fillColor=none;" parent="50BzkrFxMsGgUT9Oo1El-78" vertex="1">
          <mxGeometry width="380" height="270" as="geometry" />
        </mxCell>
        <mxCell id="C-vyLk0tnHw3VtMMgP7b-3" value="" style="shape=partialRectangle;collapsible=0;dropTarget=0;pointerEvents=0;fillColor=none;points=[[0,0.5],[1,0.5]];portConstraint=eastwest;top=0;left=0;right=0;bottom=1;" parent="C-vyLk0tnHw3VtMMgP7b-2" vertex="1">
          <mxGeometry y="30" width="380" height="30" as="geometry" />
        </mxCell>
        <mxCell id="C-vyLk0tnHw3VtMMgP7b-4" value="PK" style="shape=partialRectangle;overflow=hidden;connectable=0;fillColor=none;top=0;left=0;bottom=0;right=0;fontStyle=1;" parent="C-vyLk0tnHw3VtMMgP7b-3" vertex="1">
          <mxGeometry width="30" height="30" as="geometry">
            <mxRectangle width="30" height="30" as="alternateBounds" />
          </mxGeometry>
        </mxCell>
        <mxCell id="C-vyLk0tnHw3VtMMgP7b-5" value="property_id UUID Indexed" style="shape=partialRectangle;overflow=hidden;connectable=0;fillColor=none;top=0;left=0;bottom=0;right=0;align=left;spacingLeft=6;fontStyle=5;" parent="C-vyLk0tnHw3VtMMgP7b-3" vertex="1">
          <mxGeometry x="30" width="350" height="30" as="geometry">
            <mxRectangle width="350" height="30" as="alternateBounds" />
          </mxGeometry>
        </mxCell>
        <mxCell id="C-vyLk0tnHw3VtMMgP7b-6" value="" style="shape=partialRectangle;collapsible=0;dropTarget=0;pointerEvents=0;fillColor=none;points=[[0,0.5],[1,0.5]];portConstraint=eastwest;top=0;left=0;right=0;bottom=0;" parent="C-vyLk0tnHw3VtMMgP7b-2" vertex="1">
          <mxGeometry y="60" width="380" height="30" as="geometry" />
        </mxCell>
        <mxCell id="C-vyLk0tnHw3VtMMgP7b-7" value="FK1" style="shape=partialRectangle;overflow=hidden;connectable=0;fillColor=none;top=0;left=0;bottom=0;right=0;" parent="C-vyLk0tnHw3VtMMgP7b-6" vertex="1">
          <mxGeometry width="30" height="30" as="geometry">
            <mxRectangle width="30" height="30" as="alternateBounds" />
          </mxGeometry>
        </mxCell>
        <mxCell id="C-vyLk0tnHw3VtMMgP7b-8" value="host_id references User(user_id)" style="shape=partialRectangle;overflow=hidden;connectable=0;fillColor=none;top=0;left=0;bottom=0;right=0;align=left;spacingLeft=6;" parent="C-vyLk0tnHw3VtMMgP7b-6" vertex="1">
          <mxGeometry x="30" width="350" height="30" as="geometry">
            <mxRectangle width="350" height="30" as="alternateBounds" />
          </mxGeometry>
        </mxCell>
        <mxCell id="C-vyLk0tnHw3VtMMgP7b-9" value="" style="shape=partialRectangle;collapsible=0;dropTarget=0;pointerEvents=0;fillColor=none;points=[[0,0.5],[1,0.5]];portConstraint=eastwest;top=0;left=0;right=0;bottom=0;" parent="C-vyLk0tnHw3VtMMgP7b-2" vertex="1">
          <mxGeometry y="90" width="380" height="30" as="geometry" />
        </mxCell>
        <mxCell id="C-vyLk0tnHw3VtMMgP7b-10" value="" style="shape=partialRectangle;overflow=hidden;connectable=0;fillColor=none;top=0;left=0;bottom=0;right=0;" parent="C-vyLk0tnHw3VtMMgP7b-9" vertex="1">
          <mxGeometry width="30" height="30" as="geometry">
            <mxRectangle width="30" height="30" as="alternateBounds" />
          </mxGeometry>
        </mxCell>
        <mxCell id="C-vyLk0tnHw3VtMMgP7b-11" value="name VARCHAR NOT NULL" style="shape=partialRectangle;overflow=hidden;connectable=0;fillColor=none;top=0;left=0;bottom=0;right=0;align=left;spacingLeft=6;" parent="C-vyLk0tnHw3VtMMgP7b-9" vertex="1">
          <mxGeometry x="30" width="350" height="30" as="geometry">
            <mxRectangle width="350" height="30" as="alternateBounds" />
          </mxGeometry>
        </mxCell>
        <mxCell id="50BzkrFxMsGgUT9Oo1El-39" value="description TEXT NOT NULL" style="shape=partialRectangle;overflow=hidden;connectable=0;fillColor=none;top=0;left=1;bottom=0;right=0;align=left;spacingLeft=6;" vertex="1" parent="50BzkrFxMsGgUT9Oo1El-78">
          <mxGeometry x="30" y="120" width="350" height="30" as="geometry">
            <mxRectangle width="350" height="30" as="alternateBounds" />
          </mxGeometry>
        </mxCell>
        <mxCell id="50BzkrFxMsGgUT9Oo1El-41" value="location VARCHAR NOT NULL" style="shape=partialRectangle;overflow=hidden;connectable=0;fillColor=none;top=0;left=1;bottom=0;right=0;align=left;spacingLeft=6;" vertex="1" parent="50BzkrFxMsGgUT9Oo1El-78">
          <mxGeometry x="30" y="150" width="350" height="30" as="geometry">
            <mxRectangle width="350" height="30" as="alternateBounds" />
          </mxGeometry>
        </mxCell>
        <mxCell id="50BzkrFxMsGgUT9Oo1El-43" value="pricepernight DECIMAL NOT NULL" style="shape=partialRectangle;overflow=hidden;connectable=0;fillColor=none;top=0;left=1;bottom=0;right=0;align=left;spacingLeft=6;" vertex="1" parent="50BzkrFxMsGgUT9Oo1El-78">
          <mxGeometry x="30" y="180" width="350" height="30" as="geometry">
            <mxRectangle width="350" height="30" as="alternateBounds" />
          </mxGeometry>
        </mxCell>
        <mxCell id="50BzkrFxMsGgUT9Oo1El-45" value="created_at TIMESTAMP DEFAULT CURRENT_TIMESTAMP" style="shape=partialRectangle;overflow=hidden;connectable=0;fillColor=none;top=0;left=1;bottom=0;right=0;align=left;spacingLeft=6;" vertex="1" parent="50BzkrFxMsGgUT9Oo1El-78">
          <mxGeometry x="30" y="210" width="350" height="30" as="geometry">
            <mxRectangle width="350" height="30" as="alternateBounds" />
          </mxGeometry>
        </mxCell>
        <mxCell id="50BzkrFxMsGgUT9Oo1El-82" value="" style="group;fillColor=none;" vertex="1" connectable="0" parent="1">
          <mxGeometry x="430" y="400" width="350" height="270" as="geometry" />
        </mxCell>
        <mxCell id="50BzkrFxMsGgUT9Oo1El-127" style="edgeStyle=orthogonalEdgeStyle;rounded=0;orthogonalLoop=1;jettySize=auto;html=1;exitX=1;exitY=0.5;exitDx=0;exitDy=0;endArrow=ERzeroToMany;endFill=0;startArrow=ERzeroToMany;startFill=0;fillColor=none;" edge="1" parent="50BzkrFxMsGgUT9Oo1El-82" source="C-vyLk0tnHw3VtMMgP7b-13">
          <mxGeometry relative="1" as="geometry">
            <mxPoint x="520" y="135" as="targetPoint" />
          </mxGeometry>
        </mxCell>
        <mxCell id="50BzkrFxMsGgUT9Oo1El-130" style="edgeStyle=orthogonalEdgeStyle;rounded=0;orthogonalLoop=1;jettySize=auto;html=1;exitX=0.5;exitY=0;exitDx=0;exitDy=0;endArrow=ERone;endFill=0;startArrow=ERzeroToMany;startFill=0;fillColor=none;" edge="1" parent="50BzkrFxMsGgUT9Oo1El-82" source="C-vyLk0tnHw3VtMMgP7b-13">
          <mxGeometry relative="1" as="geometry">
            <mxPoint x="175" y="-90" as="targetPoint" />
          </mxGeometry>
        </mxCell>
        <mxCell id="C-vyLk0tnHw3VtMMgP7b-13" value="Booking" style="shape=table;startSize=30;container=1;collapsible=1;childLayout=tableLayout;fixedRows=1;rowLines=0;fontStyle=1;align=center;resizeLast=1;fillColor=none;" parent="50BzkrFxMsGgUT9Oo1El-82" vertex="1">
          <mxGeometry width="350" height="270" as="geometry" />
        </mxCell>
        <mxCell id="C-vyLk0tnHw3VtMMgP7b-14" value="" style="shape=partialRectangle;collapsible=0;dropTarget=0;pointerEvents=0;fillColor=none;points=[[0,0.5],[1,0.5]];portConstraint=eastwest;top=0;left=0;right=0;bottom=1;" parent="C-vyLk0tnHw3VtMMgP7b-13" vertex="1">
          <mxGeometry y="30" width="350" height="30" as="geometry" />
        </mxCell>
        <mxCell id="C-vyLk0tnHw3VtMMgP7b-15" value="PK" style="shape=partialRectangle;overflow=hidden;connectable=0;fillColor=none;top=0;left=0;bottom=0;right=0;fontStyle=1;" parent="C-vyLk0tnHw3VtMMgP7b-14" vertex="1">
          <mxGeometry width="30" height="30" as="geometry">
            <mxRectangle width="30" height="30" as="alternateBounds" />
          </mxGeometry>
        </mxCell>
        <mxCell id="C-vyLk0tnHw3VtMMgP7b-16" value="booking_id UUID Indexed " style="shape=partialRectangle;overflow=hidden;connectable=0;fillColor=none;top=0;left=0;bottom=0;right=0;align=left;spacingLeft=6;fontStyle=5;" parent="C-vyLk0tnHw3VtMMgP7b-14" vertex="1">
          <mxGeometry x="30" width="320" height="30" as="geometry">
            <mxRectangle width="320" height="30" as="alternateBounds" />
          </mxGeometry>
        </mxCell>
        <mxCell id="C-vyLk0tnHw3VtMMgP7b-17" value="" style="shape=partialRectangle;collapsible=0;dropTarget=0;pointerEvents=0;fillColor=none;points=[[0,0.5],[1,0.5]];portConstraint=eastwest;top=0;left=0;right=0;bottom=0;" parent="C-vyLk0tnHw3VtMMgP7b-13" vertex="1">
          <mxGeometry y="60" width="350" height="30" as="geometry" />
        </mxCell>
        <mxCell id="C-vyLk0tnHw3VtMMgP7b-18" value="FK1" style="shape=partialRectangle;overflow=hidden;connectable=0;fillColor=none;top=0;left=0;bottom=0;right=0;" parent="C-vyLk0tnHw3VtMMgP7b-17" vertex="1">
          <mxGeometry width="30" height="30" as="geometry">
            <mxRectangle width="30" height="30" as="alternateBounds" />
          </mxGeometry>
        </mxCell>
        <mxCell id="C-vyLk0tnHw3VtMMgP7b-19" value="property_id references Property(property_id)" style="shape=partialRectangle;overflow=hidden;connectable=0;fillColor=none;top=0;left=0;bottom=0;right=0;align=left;spacingLeft=6;" parent="C-vyLk0tnHw3VtMMgP7b-17" vertex="1">
          <mxGeometry x="30" width="320" height="30" as="geometry">
            <mxRectangle width="320" height="30" as="alternateBounds" />
          </mxGeometry>
        </mxCell>
        <mxCell id="C-vyLk0tnHw3VtMMgP7b-20" value="" style="shape=partialRectangle;collapsible=0;dropTarget=0;pointerEvents=0;fillColor=none;points=[[0,0.5],[1,0.5]];portConstraint=eastwest;top=0;left=0;right=0;bottom=0;" parent="C-vyLk0tnHw3VtMMgP7b-13" vertex="1">
          <mxGeometry y="90" width="350" height="30" as="geometry" />
        </mxCell>
        <mxCell id="C-vyLk0tnHw3VtMMgP7b-21" value="FK2" style="shape=partialRectangle;overflow=hidden;connectable=0;fillColor=none;top=0;left=0;bottom=0;right=0;" parent="C-vyLk0tnHw3VtMMgP7b-20" vertex="1">
          <mxGeometry width="30" height="30" as="geometry">
            <mxRectangle width="30" height="30" as="alternateBounds" />
          </mxGeometry>
        </mxCell>
        <mxCell id="C-vyLk0tnHw3VtMMgP7b-22" value="user_id references User(user_id)" style="shape=partialRectangle;overflow=hidden;connectable=0;fillColor=none;top=0;left=0;bottom=0;right=0;align=left;spacingLeft=6;" parent="C-vyLk0tnHw3VtMMgP7b-20" vertex="1">
          <mxGeometry x="30" width="320" height="30" as="geometry">
            <mxRectangle width="320" height="30" as="alternateBounds" />
          </mxGeometry>
        </mxCell>
        <mxCell id="50BzkrFxMsGgUT9Oo1El-8" value="" style="shape=partialRectangle;overflow=hidden;connectable=0;fillColor=none;top=0;left=0;bottom=0;right=0;" vertex="1" parent="50BzkrFxMsGgUT9Oo1El-82">
          <mxGeometry y="120" width="30" height="30" as="geometry">
            <mxRectangle width="30" height="30" as="alternateBounds" />
          </mxGeometry>
        </mxCell>
        <mxCell id="50BzkrFxMsGgUT9Oo1El-9" value="start_date DATE NOT NULL" style="shape=partialRectangle;overflow=hidden;connectable=0;fillColor=none;top=0;left=1;bottom=0;right=0;align=left;spacingLeft=6;" vertex="1" parent="50BzkrFxMsGgUT9Oo1El-82">
          <mxGeometry x="30" y="120" width="260" height="30" as="geometry">
            <mxRectangle width="260" height="30" as="alternateBounds" />
          </mxGeometry>
        </mxCell>
        <mxCell id="50BzkrFxMsGgUT9Oo1El-11" value="" style="shape=partialRectangle;overflow=hidden;connectable=0;fillColor=none;top=0;left=0;bottom=0;right=0;" vertex="1" parent="50BzkrFxMsGgUT9Oo1El-82">
          <mxGeometry y="150" width="30" height="30" as="geometry">
            <mxRectangle width="30" height="30" as="alternateBounds" />
          </mxGeometry>
        </mxCell>
        <mxCell id="50BzkrFxMsGgUT9Oo1El-12" value="end_date DATE NOT NULL" style="shape=partialRectangle;overflow=hidden;connectable=0;fillColor=none;top=0;left=1;bottom=0;right=0;align=left;spacingLeft=6;" vertex="1" parent="50BzkrFxMsGgUT9Oo1El-82">
          <mxGeometry x="30" y="150" width="260" height="30" as="geometry">
            <mxRectangle width="260" height="30" as="alternateBounds" />
          </mxGeometry>
        </mxCell>
        <mxCell id="50BzkrFxMsGgUT9Oo1El-13" value="" style="shape=partialRectangle;overflow=hidden;connectable=0;fillColor=none;top=0;left=0;bottom=0;right=0;" vertex="1" parent="50BzkrFxMsGgUT9Oo1El-82">
          <mxGeometry y="180" width="30" height="30" as="geometry">
            <mxRectangle width="30" height="30" as="alternateBounds" />
          </mxGeometry>
        </mxCell>
        <mxCell id="50BzkrFxMsGgUT9Oo1El-14" value="total_price DECIMAL NOT NULL" style="shape=partialRectangle;overflow=hidden;connectable=0;fillColor=none;top=0;left=1;bottom=0;right=0;align=left;spacingLeft=6;" vertex="1" parent="50BzkrFxMsGgUT9Oo1El-82">
          <mxGeometry x="30" y="180" width="260" height="30" as="geometry">
            <mxRectangle width="260" height="30" as="alternateBounds" />
          </mxGeometry>
        </mxCell>
        <mxCell id="50BzkrFxMsGgUT9Oo1El-15" value="" style="shape=partialRectangle;overflow=hidden;connectable=0;fillColor=none;top=0;left=0;bottom=0;right=0;" vertex="1" parent="50BzkrFxMsGgUT9Oo1El-82">
          <mxGeometry y="210" width="30" height="30" as="geometry">
            <mxRectangle width="30" height="30" as="alternateBounds" />
          </mxGeometry>
        </mxCell>
        <mxCell id="50BzkrFxMsGgUT9Oo1El-16" value="status ENUM (pending, confirmed, canceled) NOT NULL" style="shape=partialRectangle;overflow=hidden;connectable=0;fillColor=none;top=0;left=1;bottom=0;right=0;align=left;spacingLeft=6;" vertex="1" parent="50BzkrFxMsGgUT9Oo1El-82">
          <mxGeometry x="30" y="210" width="300" height="30" as="geometry">
            <mxRectangle width="260" height="30" as="alternateBounds" />
          </mxGeometry>
        </mxCell>
        <mxCell id="50BzkrFxMsGgUT9Oo1El-17" value="" style="shape=partialRectangle;overflow=hidden;connectable=0;fillColor=none;top=0;left=0;bottom=0;right=0;" vertex="1" parent="50BzkrFxMsGgUT9Oo1El-82">
          <mxGeometry y="240" width="30" height="30" as="geometry">
            <mxRectangle width="30" height="30" as="alternateBounds" />
          </mxGeometry>
        </mxCell>
        <mxCell id="50BzkrFxMsGgUT9Oo1El-18" value="created_at TIMESTAMP DEFAULT CURRENT_TIMESTAMP" style="shape=partialRectangle;overflow=hidden;connectable=0;fillColor=none;top=0;left=1;bottom=0;right=0;align=left;spacingLeft=6;" vertex="1" parent="50BzkrFxMsGgUT9Oo1El-82">
          <mxGeometry x="30" y="240" width="320" height="30" as="geometry">
            <mxRectangle width="260" height="30" as="alternateBounds" />
          </mxGeometry>
        </mxCell>
        <mxCell id="50BzkrFxMsGgUT9Oo1El-83" value="" style="group" vertex="1" connectable="0" parent="1">
          <mxGeometry x="770" y="820" width="390" height="270" as="geometry" />
        </mxCell>
        <mxCell id="50BzkrFxMsGgUT9Oo1El-84" value="" style="group;fillColor=none;" vertex="1" connectable="0" parent="50BzkrFxMsGgUT9Oo1El-83">
          <mxGeometry x="180" y="10" width="390" height="180" as="geometry" />
        </mxCell>
        <mxCell id="50BzkrFxMsGgUT9Oo1El-132" style="edgeStyle=orthogonalEdgeStyle;rounded=0;orthogonalLoop=1;jettySize=auto;html=1;exitX=0;exitY=0;exitDx=0;exitDy=0;endArrow=ERone;endFill=0;startArrow=ERzeroToMany;startFill=0;fillColor=none;" edge="1" parent="50BzkrFxMsGgUT9Oo1El-84" source="50BzkrFxMsGgUT9Oo1El-58">
          <mxGeometry relative="1" as="geometry">
            <mxPoint x="-180" y="-160" as="targetPoint" />
          </mxGeometry>
        </mxCell>
        <mxCell id="50BzkrFxMsGgUT9Oo1El-58" value="Payment" style="shape=table;startSize=30;container=1;collapsible=1;childLayout=tableLayout;fixedRows=1;rowLines=0;fontStyle=1;align=center;resizeLast=1;fillColor=none;" vertex="1" parent="50BzkrFxMsGgUT9Oo1El-84">
          <mxGeometry width="390" height="180" as="geometry" />
        </mxCell>
        <mxCell id="50BzkrFxMsGgUT9Oo1El-59" value="" style="shape=partialRectangle;collapsible=0;dropTarget=0;pointerEvents=0;fillColor=none;points=[[0,0.5],[1,0.5]];portConstraint=eastwest;top=0;left=0;right=0;bottom=1;" vertex="1" parent="50BzkrFxMsGgUT9Oo1El-58">
          <mxGeometry y="30" width="390" height="30" as="geometry" />
        </mxCell>
        <mxCell id="50BzkrFxMsGgUT9Oo1El-60" value="PK" style="shape=partialRectangle;overflow=hidden;connectable=0;fillColor=none;top=0;left=0;bottom=0;right=0;fontStyle=1;" vertex="1" parent="50BzkrFxMsGgUT9Oo1El-59">
          <mxGeometry width="30" height="30" as="geometry">
            <mxRectangle width="30" height="30" as="alternateBounds" />
          </mxGeometry>
        </mxCell>
        <mxCell id="50BzkrFxMsGgUT9Oo1El-61" value="payment_id UUID Indexed " style="shape=partialRectangle;overflow=hidden;connectable=0;fillColor=none;top=0;left=0;bottom=0;right=0;align=left;spacingLeft=6;fontStyle=5;" vertex="1" parent="50BzkrFxMsGgUT9Oo1El-59">
          <mxGeometry x="30" width="360" height="30" as="geometry">
            <mxRectangle width="360" height="30" as="alternateBounds" />
          </mxGeometry>
        </mxCell>
        <mxCell id="50BzkrFxMsGgUT9Oo1El-62" value="" style="shape=partialRectangle;collapsible=0;dropTarget=0;pointerEvents=0;fillColor=none;points=[[0,0.5],[1,0.5]];portConstraint=eastwest;top=0;left=0;right=0;bottom=0;" vertex="1" parent="50BzkrFxMsGgUT9Oo1El-58">
          <mxGeometry y="60" width="390" height="30" as="geometry" />
        </mxCell>
        <mxCell id="50BzkrFxMsGgUT9Oo1El-63" value="FK1" style="shape=partialRectangle;overflow=hidden;connectable=0;fillColor=none;top=0;left=0;bottom=0;right=0;" vertex="1" parent="50BzkrFxMsGgUT9Oo1El-62">
          <mxGeometry width="30" height="30" as="geometry">
            <mxRectangle width="30" height="30" as="alternateBounds" />
          </mxGeometry>
        </mxCell>
        <mxCell id="50BzkrFxMsGgUT9Oo1El-64" value="booking_id references Booking(booking_id)" style="shape=partialRectangle;overflow=hidden;connectable=0;fillColor=none;top=0;left=0;bottom=0;right=0;align=left;spacingLeft=6;" vertex="1" parent="50BzkrFxMsGgUT9Oo1El-62">
          <mxGeometry x="30" width="360" height="30" as="geometry">
            <mxRectangle width="360" height="30" as="alternateBounds" />
          </mxGeometry>
        </mxCell>
        <mxCell id="50BzkrFxMsGgUT9Oo1El-68" value="" style="shape=partialRectangle;overflow=hidden;connectable=0;fillColor=none;top=0;left=0;bottom=0;right=0;" vertex="1" parent="50BzkrFxMsGgUT9Oo1El-84">
          <mxGeometry y="90" width="30" height="30" as="geometry">
            <mxRectangle width="30" height="30" as="alternateBounds" />
          </mxGeometry>
        </mxCell>
        <mxCell id="50BzkrFxMsGgUT9Oo1El-69" value="amount DECIMAL NOT NULL" style="shape=partialRectangle;overflow=hidden;connectable=0;fillColor=none;top=0;left=1;bottom=0;right=0;align=left;spacingLeft=6;" vertex="1" parent="50BzkrFxMsGgUT9Oo1El-84">
          <mxGeometry x="30" y="90" width="350" height="30" as="geometry">
            <mxRectangle width="260" height="30" as="alternateBounds" />
          </mxGeometry>
        </mxCell>
        <mxCell id="50BzkrFxMsGgUT9Oo1El-70" value="" style="shape=partialRectangle;overflow=hidden;connectable=0;fillColor=none;top=0;left=0;bottom=0;right=0;" vertex="1" parent="50BzkrFxMsGgUT9Oo1El-84">
          <mxGeometry y="120" width="30" height="30" as="geometry">
            <mxRectangle width="30" height="30" as="alternateBounds" />
          </mxGeometry>
        </mxCell>
        <mxCell id="50BzkrFxMsGgUT9Oo1El-71" value="payment_date TIMESTAMP DEFAULT CURRENT_TIMESTAMP" style="shape=partialRectangle;overflow=hidden;connectable=0;fillColor=none;top=0;left=1;bottom=0;right=0;align=left;spacingLeft=6;" vertex="1" parent="50BzkrFxMsGgUT9Oo1El-84">
          <mxGeometry x="30" y="120" width="360" height="30" as="geometry">
            <mxRectangle width="260" height="30" as="alternateBounds" />
          </mxGeometry>
        </mxCell>
        <mxCell id="50BzkrFxMsGgUT9Oo1El-72" value="" style="shape=partialRectangle;overflow=hidden;connectable=0;fillColor=none;top=0;left=0;bottom=0;right=0;" vertex="1" parent="50BzkrFxMsGgUT9Oo1El-84">
          <mxGeometry y="150" width="30" height="30" as="geometry">
            <mxRectangle width="30" height="30" as="alternateBounds" />
          </mxGeometry>
        </mxCell>
        <mxCell id="50BzkrFxMsGgUT9Oo1El-73" value="payment_method ENUM (credit_card, paypal, stripe) NOT NULL" style="shape=partialRectangle;overflow=hidden;connectable=0;fillColor=none;top=0;left=1;bottom=0;right=0;align=left;spacingLeft=6;" vertex="1" parent="50BzkrFxMsGgUT9Oo1El-84">
          <mxGeometry x="30" y="150" width="350" height="30" as="geometry">
            <mxRectangle width="260" height="30" as="alternateBounds" />
          </mxGeometry>
        </mxCell>
        <mxCell id="50BzkrFxMsGgUT9Oo1El-85" value="" style="group;fillColor=none;" vertex="1" connectable="0" parent="1">
          <mxGeometry x="430" y="800" width="390" height="220" as="geometry" />
        </mxCell>
        <mxCell id="50BzkrFxMsGgUT9Oo1El-86" value="Review" style="shape=table;startSize=30;container=1;collapsible=1;childLayout=tableLayout;fixedRows=1;rowLines=0;fontStyle=1;align=center;resizeLast=1;fillColor=none;" vertex="1" parent="50BzkrFxMsGgUT9Oo1El-85">
          <mxGeometry width="390" height="210" as="geometry" />
        </mxCell>
        <mxCell id="50BzkrFxMsGgUT9Oo1El-87" value="" style="shape=partialRectangle;collapsible=0;dropTarget=0;pointerEvents=0;fillColor=none;points=[[0,0.5],[1,0.5]];portConstraint=eastwest;top=0;left=0;right=0;bottom=1;" vertex="1" parent="50BzkrFxMsGgUT9Oo1El-86">
          <mxGeometry y="30" width="390" height="30" as="geometry" />
        </mxCell>
        <mxCell id="50BzkrFxMsGgUT9Oo1El-88" value="PK" style="shape=partialRectangle;overflow=hidden;connectable=0;fillColor=none;top=0;left=0;bottom=0;right=0;fontStyle=1;" vertex="1" parent="50BzkrFxMsGgUT9Oo1El-87">
          <mxGeometry width="30" height="30" as="geometry">
            <mxRectangle width="30" height="30" as="alternateBounds" />
          </mxGeometry>
        </mxCell>
        <mxCell id="50BzkrFxMsGgUT9Oo1El-89" value="review_id UUID Indexed " style="shape=partialRectangle;overflow=hidden;connectable=0;fillColor=none;top=0;left=0;bottom=0;right=0;align=left;spacingLeft=6;fontStyle=5;" vertex="1" parent="50BzkrFxMsGgUT9Oo1El-87">
          <mxGeometry x="30" width="360" height="30" as="geometry">
            <mxRectangle width="360" height="30" as="alternateBounds" />
          </mxGeometry>
        </mxCell>
        <mxCell id="50BzkrFxMsGgUT9Oo1El-90" value="" style="shape=partialRectangle;collapsible=0;dropTarget=0;pointerEvents=0;fillColor=none;points=[[0,0.5],[1,0.5]];portConstraint=eastwest;top=0;left=0;right=0;bottom=0;" vertex="1" parent="50BzkrFxMsGgUT9Oo1El-86">
          <mxGeometry y="60" width="390" height="30" as="geometry" />
        </mxCell>
        <mxCell id="50BzkrFxMsGgUT9Oo1El-91" value="FK1" style="shape=partialRectangle;overflow=hidden;connectable=0;fillColor=none;top=0;left=0;bottom=0;right=0;" vertex="1" parent="50BzkrFxMsGgUT9Oo1El-90">
          <mxGeometry width="30" height="30" as="geometry">
            <mxRectangle width="30" height="30" as="alternateBounds" />
          </mxGeometry>
        </mxCell>
        <mxCell id="50BzkrFxMsGgUT9Oo1El-92" value="property_id references Property(property_id)" style="shape=partialRectangle;overflow=hidden;connectable=0;fillColor=none;top=0;left=0;bottom=0;right=0;align=left;spacingLeft=6;" vertex="1" parent="50BzkrFxMsGgUT9Oo1El-90">
          <mxGeometry x="30" width="360" height="30" as="geometry">
            <mxRectangle width="360" height="30" as="alternateBounds" />
          </mxGeometry>
        </mxCell>
        <mxCell id="50BzkrFxMsGgUT9Oo1El-93" value="FK2" style="shape=partialRectangle;overflow=hidden;connectable=0;fillColor=none;top=0;left=0;bottom=0;right=0;" vertex="1" parent="50BzkrFxMsGgUT9Oo1El-85">
          <mxGeometry y="90" width="30" height="30" as="geometry">
            <mxRectangle width="30" height="30" as="alternateBounds" />
          </mxGeometry>
        </mxCell>
        <mxCell id="50BzkrFxMsGgUT9Oo1El-94" value="user_id references User(user_id)" style="shape=partialRectangle;overflow=hidden;connectable=0;fillColor=none;top=0;left=1;bottom=0;right=0;align=left;spacingLeft=6;" vertex="1" parent="50BzkrFxMsGgUT9Oo1El-85">
          <mxGeometry x="30" y="90" width="350" height="30" as="geometry">
            <mxRectangle width="260" height="30" as="alternateBounds" />
          </mxGeometry>
        </mxCell>
        <mxCell id="50BzkrFxMsGgUT9Oo1El-95" value="" style="shape=partialRectangle;overflow=hidden;connectable=0;fillColor=none;top=0;left=0;bottom=0;right=0;" vertex="1" parent="50BzkrFxMsGgUT9Oo1El-85">
          <mxGeometry y="120" width="30" height="30" as="geometry">
            <mxRectangle width="30" height="30" as="alternateBounds" />
          </mxGeometry>
        </mxCell>
        <mxCell id="50BzkrFxMsGgUT9Oo1El-96" value="rating INTEGER CHECK rating &gt;= 1 AND rating &lt;= 5 NOT NULL" style="shape=partialRectangle;overflow=hidden;connectable=0;fillColor=none;top=0;left=1;bottom=0;right=0;align=left;spacingLeft=6;" vertex="1" parent="50BzkrFxMsGgUT9Oo1El-85">
          <mxGeometry x="30" y="120" width="360" height="30" as="geometry">
            <mxRectangle width="260" height="30" as="alternateBounds" />
          </mxGeometry>
        </mxCell>
        <mxCell id="50BzkrFxMsGgUT9Oo1El-97" value="" style="shape=partialRectangle;overflow=hidden;connectable=0;fillColor=none;top=0;left=0;bottom=0;right=0;" vertex="1" parent="50BzkrFxMsGgUT9Oo1El-85">
          <mxGeometry y="150" width="30" height="30" as="geometry">
            <mxRectangle width="30" height="30" as="alternateBounds" />
          </mxGeometry>
        </mxCell>
        <mxCell id="50BzkrFxMsGgUT9Oo1El-98" value="comment TEXT NOT NULL" style="shape=partialRectangle;overflow=hidden;connectable=0;fillColor=none;top=0;left=1;bottom=0;right=0;align=left;spacingLeft=6;" vertex="1" parent="50BzkrFxMsGgUT9Oo1El-85">
          <mxGeometry x="30" y="150" width="350" height="30" as="geometry">
            <mxRectangle width="260" height="30" as="alternateBounds" />
          </mxGeometry>
        </mxCell>
        <mxCell id="50BzkrFxMsGgUT9Oo1El-99" value="" style="shape=partialRectangle;overflow=hidden;connectable=0;fillColor=none;top=0;left=0;bottom=0;right=0;" vertex="1" parent="50BzkrFxMsGgUT9Oo1El-85">
          <mxGeometry y="180" width="30" height="30" as="geometry">
            <mxRectangle width="30" height="30" as="alternateBounds" />
          </mxGeometry>
        </mxCell>
        <mxCell id="50BzkrFxMsGgUT9Oo1El-100" value="created_at TIMESTAMP DEFAULT CURRENT_TIMESTAMP" style="shape=partialRectangle;overflow=hidden;connectable=0;fillColor=none;top=0;left=1;bottom=0;right=0;align=left;spacingLeft=6;" vertex="1" parent="50BzkrFxMsGgUT9Oo1El-85">
          <mxGeometry x="30" y="180" width="350" height="30" as="geometry">
            <mxRectangle width="260" height="30" as="alternateBounds" />
          </mxGeometry>
        </mxCell>
        <mxCell id="50BzkrFxMsGgUT9Oo1El-101" value="" style="group" vertex="1" connectable="0" parent="1">
          <mxGeometry x="1320" y="70" width="290" height="210" as="geometry" />
        </mxCell>
        <mxCell id="50BzkrFxMsGgUT9Oo1El-109" value="FK2" style="shape=partialRectangle;overflow=hidden;connectable=0;fillColor=none;top=0;left=0;bottom=0;right=0;" vertex="1" parent="50BzkrFxMsGgUT9Oo1El-101">
          <mxGeometry x="-370" y="60" width="30" height="28.64" as="geometry">
            <mxRectangle width="30" height="30" as="alternateBounds" />
          </mxGeometry>
        </mxCell>
        <mxCell id="50BzkrFxMsGgUT9Oo1El-111" value="" style="shape=partialRectangle;overflow=hidden;connectable=0;fillColor=none;top=0;left=0;bottom=0;right=0;" vertex="1" parent="50BzkrFxMsGgUT9Oo1El-101">
          <mxGeometry x="-380" y="114.54545454545455" width="22.307692307692307" height="28.636363636363637" as="geometry">
            <mxRectangle width="30" height="30" as="alternateBounds" />
          </mxGeometry>
        </mxCell>
        <mxCell id="50BzkrFxMsGgUT9Oo1El-113" value="" style="shape=partialRectangle;overflow=hidden;connectable=0;fillColor=none;top=0;left=0;bottom=0;right=0;" vertex="1" parent="50BzkrFxMsGgUT9Oo1El-101">
          <mxGeometry x="-380" y="143.1818181818182" width="22.307692307692307" height="28.636363636363637" as="geometry">
            <mxRectangle width="30" height="30" as="alternateBounds" />
          </mxGeometry>
        </mxCell>
        <mxCell id="50BzkrFxMsGgUT9Oo1El-102" value="Message" style="shape=table;startSize=30;container=1;collapsible=1;childLayout=tableLayout;fixedRows=1;rowLines=0;fontStyle=1;align=center;resizeLast=1;fillColor=none;" vertex="1" parent="1">
          <mxGeometry x="950" y="40" width="390" height="180" as="geometry" />
        </mxCell>
        <mxCell id="50BzkrFxMsGgUT9Oo1El-103" value="" style="shape=partialRectangle;collapsible=0;dropTarget=0;pointerEvents=0;fillColor=none;points=[[0,0.5],[1,0.5]];portConstraint=eastwest;top=0;left=0;right=0;bottom=1;" vertex="1" parent="50BzkrFxMsGgUT9Oo1El-102">
          <mxGeometry y="30" width="390" height="30" as="geometry" />
        </mxCell>
        <mxCell id="50BzkrFxMsGgUT9Oo1El-104" value="PK" style="shape=partialRectangle;overflow=hidden;connectable=0;fillColor=none;top=0;left=0;bottom=0;right=0;fontStyle=1;" vertex="1" parent="50BzkrFxMsGgUT9Oo1El-103">
          <mxGeometry width="30" height="30" as="geometry">
            <mxRectangle width="30" height="30" as="alternateBounds" />
          </mxGeometry>
        </mxCell>
        <mxCell id="50BzkrFxMsGgUT9Oo1El-105" value="message_id UUID Indexed " style="shape=partialRectangle;overflow=hidden;connectable=0;fillColor=none;top=0;left=0;bottom=0;right=0;align=left;spacingLeft=6;fontStyle=5;" vertex="1" parent="50BzkrFxMsGgUT9Oo1El-103">
          <mxGeometry x="30" width="360" height="30" as="geometry">
            <mxRectangle width="360" height="30" as="alternateBounds" />
          </mxGeometry>
        </mxCell>
        <mxCell id="50BzkrFxMsGgUT9Oo1El-106" value="" style="shape=partialRectangle;collapsible=0;dropTarget=0;pointerEvents=0;fillColor=none;points=[[0,0.5],[1,0.5]];portConstraint=eastwest;top=0;left=0;right=0;bottom=0;" vertex="1" parent="50BzkrFxMsGgUT9Oo1El-102">
          <mxGeometry y="60" width="390" height="30" as="geometry" />
        </mxCell>
        <mxCell id="50BzkrFxMsGgUT9Oo1El-107" value="FK1" style="shape=partialRectangle;overflow=hidden;connectable=0;fillColor=none;top=0;left=0;bottom=0;right=0;" vertex="1" parent="50BzkrFxMsGgUT9Oo1El-106">
          <mxGeometry width="30" height="30" as="geometry">
            <mxRectangle width="30" height="30" as="alternateBounds" />
          </mxGeometry>
        </mxCell>
        <mxCell id="50BzkrFxMsGgUT9Oo1El-108" value="sender_id references User(user_id)" style="shape=partialRectangle;overflow=hidden;connectable=0;fillColor=none;top=0;left=0;bottom=0;right=0;align=left;spacingLeft=6;" vertex="1" parent="50BzkrFxMsGgUT9Oo1El-106">
          <mxGeometry x="30" width="360" height="30" as="geometry">
            <mxRectangle width="360" height="30" as="alternateBounds" />
          </mxGeometry>
        </mxCell>
        <mxCell id="50BzkrFxMsGgUT9Oo1El-110" value="recipient_id references User(user_id)" style="shape=partialRectangle;overflow=hidden;connectable=0;fillColor=none;top=0;left=1;bottom=0;right=0;align=left;spacingLeft=6;" vertex="1" parent="1">
          <mxGeometry x="980" y="130" width="350" height="30" as="geometry">
            <mxRectangle width="260" height="30" as="alternateBounds" />
          </mxGeometry>
        </mxCell>
        <mxCell id="50BzkrFxMsGgUT9Oo1El-112" value="message_body TEXT NOT NULL" style="shape=partialRectangle;overflow=hidden;connectable=0;fillColor=none;top=0;left=1;bottom=0;right=0;align=left;spacingLeft=6;" vertex="1" parent="1">
          <mxGeometry x="980" y="160" width="360" height="30" as="geometry">
            <mxRectangle width="260" height="30" as="alternateBounds" />
          </mxGeometry>
        </mxCell>
        <mxCell id="50BzkrFxMsGgUT9Oo1El-114" value="sent_at TIMESTAMP DEFAULT CURRENT_TIMESTAMP" style="shape=partialRectangle;overflow=hidden;connectable=0;fillColor=none;top=0;left=1;bottom=0;right=0;align=left;spacingLeft=6;" vertex="1" parent="1">
          <mxGeometry x="980" y="190" width="350" height="30" as="geometry">
            <mxRectangle width="260" height="30" as="alternateBounds" />
          </mxGeometry>
        </mxCell>
        <mxCell id="50BzkrFxMsGgUT9Oo1El-123" style="edgeStyle=orthogonalEdgeStyle;rounded=0;orthogonalLoop=1;jettySize=auto;html=1;exitX=0;exitY=0;exitDx=0;exitDy=0;entryX=1;entryY=1;entryDx=0;entryDy=0;startArrow=ERone;startFill=0;endArrow=ERzeroToMany;endFill=0;jumpStyle=arc;jumpSize=12;targetPerimeterSpacing=8;sourcePerimeterSpacing=2;fillColor=none;" edge="1" parent="1" source="C-vyLk0tnHw3VtMMgP7b-23" target="C-vyLk0tnHw3VtMMgP7b-2">
          <mxGeometry relative="1" as="geometry" />
        </mxCell>
        <mxCell id="50BzkrFxMsGgUT9Oo1El-133" style="edgeStyle=orthogonalEdgeStyle;rounded=0;orthogonalLoop=1;jettySize=auto;html=1;exitX=0;exitY=0.75;exitDx=0;exitDy=0;entryX=0;entryY=0.5;entryDx=0;entryDy=0;startArrow=ERone;startFill=0;endArrow=ERzeroToMany;endFill=0;fillColor=none;" edge="1" parent="1" source="C-vyLk0tnHw3VtMMgP7b-2" target="50BzkrFxMsGgUT9Oo1El-87">
          <mxGeometry relative="1" as="geometry" />
        </mxCell>
        <mxCell id="50BzkrFxMsGgUT9Oo1El-140" style="edgeStyle=orthogonalEdgeStyle;rounded=0;orthogonalLoop=1;jettySize=auto;html=1;exitX=0;exitY=0.5;exitDx=0;exitDy=0;entryX=1;entryY=0.095;entryDx=0;entryDy=0;entryPerimeter=0;endArrow=ERzeroToMany;endFill=0;startArrow=ERone;startFill=0;fillColor=none;" edge="1" parent="1" source="C-vyLk0tnHw3VtMMgP7b-27" target="50BzkrFxMsGgUT9Oo1El-86">
          <mxGeometry relative="1" as="geometry" />
        </mxCell>
      </root>
    </mxGraphModel>
  </diagram>
</mxfile>
